<svg xmlns="http://www.w3.org/2000/svg" width="32.376" height="33.841" viewBox="0 0 32.376 33.841">
  <g id="Group_6420" data-name="Group 6420" transform="translate(-208.496 -405.771)">
    <circle id="Ellipse_353" data-name="Ellipse 353" cx="13.5" cy="13.5" r="13.5" transform="translate(213.873 408.947)" fill="#faecd5"/>
    <g id="Group_6419" data-name="Group 6419" transform="translate(217.147 405.771)">
      <path id="Path_5206" data-name="Path 5206" d="M49.627,7.329c2.361-4.8-1.76-.81-6.351-.066-1.857.3-2.181-.961-4.532-1.988-1.052-.459-1.882.772-1.276,2.325a12.416,12.416,0,0,0,2.745,3.3h6.8A10.6,10.6,0,0,0,49.627,7.329Z" transform="translate(-32.575 -5)" fill="#ea9000"/>
      <path id="Path_5207" data-name="Path 5207" d="M43.338,20.7a.684.684,0,0,0,0,1.369h6.133a.684.684,0,0,0,0-1.369Z" transform="translate(-35.365 -14.331)" fill="#a86637"/>
      <path id="Path_5208" data-name="Path 5208" d="M27.83,36.067A7.152,7.152,0,0,0,34.7,45.221h5.41c8.58,0,10.523-5.8,8.19-11.057-1.059-2.385-2.48-3.459-3.8-4.822-.641-.662-1.951-1.767-2.518-2.329h-6.8c-.524.487-2.267,2-2.95,2.55a13.066,13.066,0,0,0-4.4,6.5Z" transform="translate(-27.544 -18.801)" fill="#ea9000"/>
    </g>
    <g id="Path_12184" data-name="Path 12184" transform="translate(207.558 403.381)" fill="#fff" stroke-linecap="round" stroke-linejoin="round" stroke-miterlimit="10">
      <path d="M 22.05298614501953 22.69912910461426 C 22.0422420501709 22.69912910461426 22.03450393676758 22.6970100402832 22.0309944152832 22.69564628601074 L 22.02928733825684 22.69393920898438 L 22.02383613586426 22.68908882141113 L 18.2703914642334 19.3499698638916 C 18.2458667755127 19.3238639831543 18.24633979797363 19.30743598937988 18.25653648376465 19.28194808959961 C 18.26645660400391 19.25716781616211 18.29529762268066 19.24378776550293 18.31740760803223 19.24378776550293 L 18.45923614501953 19.24378776550293 C 18.67622375488281 19.2518253326416 18.90033912658691 19.26006889343262 19.12130737304688 19.26006889343262 C 19.67582702636719 19.26005935668945 20.09144592285156 19.20619773864746 20.46891593933105 19.08540916442871 C 20.9189510345459 18.94476890563965 21.27741241455078 18.60037040710449 21.42966842651367 18.16252136230469 C 21.46029663085938 18.10062026977539 21.49725723266602 18.01894569396973 21.49725723266602 17.91949844360352 L 21.49725723266602 17.66949844360352 L 21.24725723266602 17.66949844360352 L 18.31740760803223 17.66949844360352 C 18.30487632751465 17.66644859313965 18.27746772766113 17.63902854919434 18.27417755126953 17.6231689453125 C 18.27441596984863 17.61402893066406 18.28947639465332 17.58351898193359 18.31740760803223 17.58351898193359 L 21.24725723266602 17.58351898193359 L 21.56741714477539 17.58351898193359 L 21.48979759216309 17.27290916442871 C 21.43560600280762 17.05602836608887 21.32921600341797 16.83254814147949 21.18213653564453 16.62664794921875 C 20.85958671569824 16.18679809570312 20.36784744262695 15.93597888946533 19.83116722106934 15.93597888946533 L 18.31740760803223 15.93597888946533 C 18.30487632751465 15.93292808532715 18.27746772766113 15.90551853179932 18.27417755126953 15.88965892791748 C 18.27441596984863 15.88051891326904 18.28947639465332 15.85000896453857 18.31740760803223 15.85000896453857 L 19.83116722106934 15.85000896453857 L 22.95635604858398 15.85000896453857 C 22.96883773803711 15.85000896453857 22.99934768676758 15.86506843566895 22.99934768676758 15.89299869537354 C 22.99934768676758 15.92997932434082 22.95626831054688 15.97247886657715 22.90899658203125 15.98480892181396 L 21.24725723266602 15.98480892181396 L 20.49717712402344 15.98480892181396 L 21.09726715087891 16.43481826782227 C 21.15473747253418 16.47790908813477 21.18759727478027 16.52215766906738 21.24204635620117 16.59547805786133 L 21.26700592041016 16.62897872924805 C 21.44904708862305 16.87168884277344 21.56463623046875 17.14616775512695 21.61057662963867 17.44477844238281 L 21.64318656921387 17.65676879882812 L 21.857666015625 17.65676879882812 L 22.93193626403809 17.65676879882812 C 22.94447708129883 17.65980911254883 22.97188758850098 17.68721771240234 22.97517776489258 17.70308876037598 C 22.97493743896484 17.71222877502441 22.95986747741699 17.74274826049805 22.93193626403809 17.74274826049805 L 21.857666015625 17.74274826049805 L 21.607666015625 17.74274826049805 L 21.607666015625 17.99274826049805 C 21.607666015625 18.06195831298828 21.58696746826172 18.15503883361816 21.55229759216309 18.24172782897949 L 21.5495662689209 18.24854850769043 L 21.5472469329834 18.25550842285156 C 21.38019752502441 18.75666618347168 21.00778388977051 19.11506080627441 20.49824714660645 19.26516342163086 C 20.05381774902344 19.37585830688477 19.61671257019043 19.42742919921875 19.12311744689941 19.42742919921875 L 18.45775604248047 19.42742919921875 L 18.95848655700684 19.86556816101074 L 22.07566833496094 22.59312057495117 C 22.10101318359375 22.62124061584473 22.11096572875977 22.65966987609863 22.09595680236816 22.6746883392334 L 22.07846641540527 22.69217872619629 L 22.07562637329102 22.69643592834473 C 22.06976890563965 22.69784927368164 22.06163787841797 22.69912910461426 22.05298614501953 22.69912910461426 Z" stroke="none"/>
      <path d="M 18.31740760803223 15.60000801086426 L 19.83116722106934 15.60000801086426 L 22.95635604858398 15.60000801086426 C 23.10285758972168 15.60000801086426 23.24934768676758 15.72208786010742 23.24934768676758 15.89299774169922 C 23.24934768676758 16.06389808654785 23.10285758972168 16.21039772033691 22.93193626403809 16.23480796813965 L 21.24725723266602 16.23480796813965 C 21.34493637084961 16.30805778503418 21.39375686645508 16.38130950927734 21.46700668334961 16.47896766662598 C 21.68674659729004 16.77195930480957 21.80883598327637 17.08935928344727 21.857666015625 17.40676879882812 L 22.93193626403809 17.40676879882812 C 23.07844734191895 17.40676879882812 23.22493743896484 17.55325889587402 23.22493743896484 17.69974899291992 C 23.22493743896484 17.84624862670898 23.10285758972168 17.99274826049805 22.93193626403809 17.99274826049805 L 21.857666015625 17.99274826049805 C 21.857666015625 18.09040832519531 21.8332462310791 18.21247863769531 21.78441619873047 18.33456802368164 C 21.58909606933594 18.9205379486084 21.14960670471191 19.33560943603516 20.56362724304199 19.50651931762695 C 20.07532691955566 19.62858772277832 19.61142730712891 19.67742919921875 19.12311744689941 19.67742919921875 L 22.24830627441406 22.41197776794434 C 22.37038612365723 22.5340576171875 22.39480590820312 22.72937774658203 22.27273750305176 22.85145950317383 C 22.22389602661133 22.92469787597656 22.12623596191406 22.94912719726562 22.05298614501953 22.94912719726562 C 21.97974586486816 22.94912719726562 21.90648651123047 22.92469787597656 21.857666015625 22.87587738037109 L 18.0976676940918 19.53092765808105 C 18.00000762939453 19.43326950073242 17.9755859375 19.31118774414062 18.02441596984863 19.18910789489746 C 18.07324600219727 19.0670280456543 18.19532775878906 18.99378776550293 18.31740760803223 18.99378776550293 L 18.46389770507812 18.99378776550293 C 18.68366432189941 19.00193023681641 18.90335083007812 19.01006698608398 19.12130737304688 19.01006698608398 C 19.55714416503906 19.01006698608398 19.98582458496094 18.97750473022461 20.39272689819336 18.84729766845703 C 20.78337669372559 18.72521781921387 21.07636642456055 18.43221855163574 21.19844627380371 18.06599807739258 C 21.22285652160645 18.01715850830078 21.24725723266602 17.96831893920898 21.24725723266602 17.91949844360352 L 18.31740760803223 17.91949844360352 C 18.17090606689453 17.91949844360352 18.02441596984863 17.77299880981445 18.02441596984863 17.62649917602539 C 18.02441596984863 17.48001861572266 18.14648628234863 17.33351898193359 18.31740760803223 17.33351898193359 L 21.24725723266602 17.33351898193359 C 21.19844627380371 17.1381893157959 21.10078620910645 16.94286918640137 20.97870635986328 16.77195930480957 C 20.71012687683105 16.40571784973145 20.29506683349609 16.18597793579102 19.83116722106934 16.18597793579102 L 18.31740760803223 16.18597793579102 C 18.17090606689453 16.18597793579102 18.02441596984863 16.03948783874512 18.02441596984863 15.89299774169922 C 18.02441596984863 15.74649810791016 18.14648628234863 15.60000801086426 18.31740760803223 15.60000801086426 Z" stroke="none" fill="#fff"/>
    </g>
    <g id="noun_giving_2054001" transform="matrix(0.899, 0.438, -0.438, 0.899, 213.163, 420.306)">
      <path id="Path_5205" data-name="Path 5205" d="M2,2.418a3.9,3.9,0,0,1-.6.446A3.362,3.362,0,0,0,0,5.763,3.789,3.789,0,0,0,.731,8.068a1.9,1.9,0,0,0,1.714.812A6.186,6.186,0,0,1,4.517,8.9a27.932,27.932,0,0,0,6.963.892,20.93,20.93,0,0,0,5.837-2.413,24.8,24.8,0,0,0,2.755-2.394c.263-.259,2.037-1.856,2.039-2.254a8.266,8.266,0,0,0,.813-.8c.093-.158-.146-.745-.38-.9-.5-.336-1.03-.1-1.618.17-.967.454-3.268,3.036-4.8,3.511A11.916,11.916,0,0,1,11.77,5,17.273,17.273,0,0,1,9.7,4.334a19.912,19.912,0,0,0,3.2-.867,6.776,6.776,0,0,0,1.988-1.4,1.282,1.282,0,0,0,.35-1.458c-.3-.7-.827-.749-1.651-.4A14.289,14.289,0,0,1,11.2.744,7.206,7.206,0,0,1,8.251.721,7.73,7.73,0,0,0,4.616.7,6.572,6.572,0,0,0,2,2.418Z" transform="translate(0 0)" fill="#b56429" stroke="#fff" stroke-width="0.5"/>
    </g>
  </g>
</svg>
