<svg xmlns="http://www.w3.org/2000/svg" width="209.749" height="174.27" viewBox="0 0 209.749 174.27"><defs><style>.a{fill:#f4be89;}.b{fill:#8bdbf0;}.c{fill:#f7a693;}.d{fill:#7185d1;}.e{fill:#f96232;}.f{fill:#233546;stroke:#242d3c;}</style></defs><g transform="translate(-93.067 -218.63)"><path class="a" d="M454.451,390.47l-9.873,3.58-6.254,6.745-2.233,9.78v46.533H449.18L451,462l41.736,1.472,2.772-6.366h12.138V406.373l-8.1-12.323L488.9,390.47l-17.189,11.793Z" transform="translate(-251.895 -71.828)"/><path class="b" d="M456.7,283.194l-6.915,4.844-11.782,2.982-6.835,7.762-1.3,10.933,1.3,14.791h11.609v39.852H491.5V323.3h15.174l-2.422-26.655-8.847-6.552-12.168-2.056-6.911-4.844-8.971,7.827Z" transform="translate(-246.159 -60.754)"/><path class="c" d="M419.574,338.559l-13.455,11.309-17.421-2.1-13.39-9.212-13.345,7.577-4.057,11.348,5.041,7.8,6.994,3.858,5.367-1.156-5.367,42.594,11.5,4.348,15.375,2.089,22.758-3.259,7.62-3.178-5.941-42.594,5.941,2.466,12.741-12.969-10.278-15.292Z" transform="translate(-261.432 -49.004)"/><path class="d" d="M475.638,320.81l2.254,12.947,6.352,1.754,5.905-3.616V320.81Z" transform="translate(-253.526 -68.955)"/><path class="e" d="M456.373,390.47l-9.78,3.918,19.9,13.974,5.727,4.073,26.366-18.047-8.176-3.918-18.19,12.522L455.305,390.47" transform="translate(-252.328 -71.828)"/><g transform="translate(93.639 219.29)"><g transform="translate(16.052 15.016)"><path class="e" d="M236.244,73.639a1.811,1.811,0,1,1-.067,2.557A1.812,1.812,0,0,1,236.244,73.639Z" transform="translate(-221.868 -42.867)"/><path class="e" d="M208.627,127.277a4.23,4.23,0,1,1-.129,5.975A4.24,4.24,0,0,1,208.627,127.277Z" transform="translate(-207.325 20.662)"/><path class="e" d="M261.73,110.265a1.8,1.8,0,0,1,2.552.06,1.809,1.809,0,1,1-2.617,2.5A1.793,1.793,0,0,1,261.73,110.265Z" transform="translate(-199.612 -10.872)"/><path class="e" d="M225.691,57.45a5.433,5.433,0,1,1-.182,7.7A5.441,5.441,0,0,1,225.691,57.45Z" transform="translate(-188.924 -55.955)"/><path class="e" d="M251.474,67.841a4.838,4.838,0,1,1-.165,6.836A4.836,4.836,0,0,1,251.474,67.841Z" transform="translate(-66.524 -10.311)"/></g><g transform="translate(88.389)"><path class="f" d="M291.7,73.366l-14.233-16.6,10.394-7.8,11.55,11.55Zm-8.785-16.009,8.247,9.624,3.532-5.885-7.185-7.185Z" transform="translate(-257.706 -48.964)"/><path class="f" d="M281.906,91.628H266.918V71.02a18.756,18.756,0,0,1,18.735-18.735H289.4v3.747h-3.747A15.005,15.005,0,0,0,270.665,71.02V87.881h11.241Z" transform="translate(-266.918 -46.063)"/><path class="f" d="M294.368,73.366l-7.709-12.852,11.55-11.55,10.394,7.8ZM291.376,61.1l3.53,5.885,8.249-9.624-4.594-3.445Z" transform="translate(-249.675 -48.964)"/><path class="f" d="M326.375,123.236H273.918V63.285h3.747v56.2h44.964v-56.2h3.747Z" transform="translate(-260.804 -36.455)"/><path class="f" d="M319.4,91.628H304.412V87.881h11.241V71.02a15.005,15.005,0,0,0-14.988-14.988h-3.747V52.285h3.747A18.756,18.756,0,0,1,319.4,71.02Z" transform="translate(-240.714 -46.063)"/><path class="f" d="M296.384,84.616l-8.466-4.539V65.285h16.861V79.743Zm-4.719-6.782,4.646,2.49,4.721-2.741V69.032h-9.367Z" transform="translate(-248.575 -34.708)"/></g><g transform="translate(88.981 98.17)"><rect class="f" width="13.114" height="3.747" transform="translate(1.874 58.078)"/><path class="f" d="M322.945,164.075H274.234V115.364h3.747v44.964H319.2V115.364h3.747Z" transform="translate(-261.119 -89.135)"/><path class="f" d="M342.173,170.683H327.185v-3.747h11.241V121.972a16.883,16.883,0,0,0-16.281-16.852L304.7,117.41l-17.44-12.29a16.883,16.883,0,0,0-16.282,16.852v44.964h11.241v3.747H267.234V121.972a20.633,20.633,0,0,1,20.608-20.608h.594l16.268,11.46,16.269-11.46h.592a20.631,20.631,0,0,1,20.608,20.608Z" transform="translate(-267.234 -101.364)"/><path class="f" d="M300.06,125.393l-27.51-19.382,2.159-3.063,25.351,17.86,25.351-17.86,2.159,3.063Z" transform="translate(-262.59 -99.98)"/><rect class="f" width="13.114" height="3.747" transform="translate(59.952 58.078)"/></g><g transform="translate(0 68.288)"><path class="f" d="M257.135,163.925a81.766,81.766,0,0,1-29.168-5.746l-1.4-.543,6.966-46,.272-.373A39.84,39.84,0,0,0,240.273,89.9h3.747a43.26,43.26,0,0,1-6.915,23.173l-6.383,42.138a72.77,72.77,0,0,0,52.827,0l-6.383-42.138A43.256,43.256,0,0,1,270.249,89.9H274a39.84,39.84,0,0,0,6.469,21.358l.27.369,6.969,46.005-1.4.543A81.758,81.758,0,0,1,257.135,163.925Z" transform="translate(-213.775 -81.492)"/><path class="f" d="M293.665,121.327l-9.366-3.269,1.237-3.539,6.951,2.428,9.667-11.278c-2.462-5.761-8.923-15.709-16.6-16.462a28.1,28.1,0,0,1-44.9,0c-7.683.753-14.145,10.7-16.607,16.462l9.669,11.278,6.951-2.428,1.236,3.539-9.366,3.269-12.8-14.928.392-1.036c1.948-5.176,10.074-19.949,21.442-19.949h.976l.56.8a24.359,24.359,0,0,0,39.98,0l.56-.8h.976c11.37,0,19.5,14.772,21.444,19.949l.392,1.036Z" transform="translate(-219.739 -85.414)"/><rect class="f" width="17.64" height="3.747" transform="matrix(0.159, -0.987, 0.987, 0.159, 31.776, 29.307)"/><rect class="f" width="3.747" height="7.494" transform="translate(41.487 13.114)"/><rect class="f" width="3.749" height="15.891" transform="translate(48.181 12.66) rotate(-12.278)"/></g></g></g></svg>