<svg xmlns="http://www.w3.org/2000/svg" width="191.333" height="128.359" viewBox="0 0 191.333 128.359"><defs><style>.a{fill:#f96232;}.b{fill:#f5c697;}.c{fill:#242d3c;}</style></defs><g transform="translate(-122.543 -244.318)"><path class="a" d="M-163.931,374.5l9.261,2.445,4.715,17.719v9.981H-159.7l-9.557-19.608Z" transform="translate(292 -46)"/><path class="b" d="M252.229,297.052,172.281,354.26l6.738,16.726H275.84l-23.611-73.934" transform="translate(-35 -20.914)"/><path class="a" d="M-76.79,358.151l-4.649,4.058,9.172,33.606,16.46,44.165h5.21l6.68-3.4-1.9-8.4L-69.4,358.151Z" transform="translate(296 -87)"/><g transform="translate(19 26.232)"><g transform="translate(103.543 242.727)"><g transform="translate(0 0)"><path class="c" d="M246.544,144.984a20.479,20.479,0,0,1-20.414-21.649l5.2.316a15.022,15.022,0,0,0,.716,5.548,15.266,15.266,0,0,0,29.764-5.564l5.206-.3a20.527,20.527,0,0,1-20.477,21.649Z" transform="translate(-189.52 -41.266)"/><path class="c" d="M316.068,152.071l-99.072,0-6.234-19.218,80.2-58.161Zm-95.281-5.217,88.107,0-20.68-63.734L216.89,134.847Z" transform="translate(-197.706 -67.241)"/><rect class="c" width="31.725" height="5.215" transform="matrix(0.81, -0.587, 0.587, 0.81, 35.768, 61.317)"/><path class="c" d="M216.842,143.123h0a9.537,9.537,0,0,1-9.057-6.573l-5.07-15.637a9.533,9.533,0,0,1,18.135-5.884l5.065,15.611a9.536,9.536,0,0,1-6.118,12.019A9.7,9.7,0,0,1,216.842,143.123Zm-5.05-29.474a4.514,4.514,0,0,0-1.361.213,4.331,4.331,0,0,0-2.752,5.453l5.062,15.614a4.334,4.334,0,0,0,2.151,2.51,4.258,4.258,0,0,0,1.95.468h0a4.444,4.444,0,0,0,1.359-.213,4.291,4.291,0,0,0,2.5-2.143,4.337,4.337,0,0,0,.253-3.313l-5.061-15.6a4.337,4.337,0,0,0-4.1-2.988Z" transform="translate(-202.251 -49.224)"/><path class="c" d="M292.653,159.461h0a9.492,9.492,0,0,1-4.337-1.051,9.394,9.394,0,0,1-4.731-5.558L260.694,82.3a9.544,9.544,0,0,1,6.124-12,9.523,9.523,0,0,1,12.011,6.131l22.879,70.551a9.469,9.469,0,0,1-.563,7.276,9.519,9.519,0,0,1-8.492,5.2ZM269.769,75.046a4.276,4.276,0,0,0-1.338.216,4.326,4.326,0,0,0-2.777,5.436l22.893,70.554a4.241,4.241,0,0,0,2.138,2.514,4.3,4.3,0,0,0,3.3.27,4.367,4.367,0,0,0,2.51-2.149,4.279,4.279,0,0,0,.252-3.286L273.868,78.034a4.319,4.319,0,0,0-4.1-2.988Z" transform="translate(-171.294 -69.835)"/></g><g transform="translate(121.462 9.929)"><rect class="c" width="24.974" height="5.214" transform="translate(6.459 26.299) rotate(-17.974)"/><rect class="c" width="5.215" height="24.968" transform="matrix(0.293, -0.956, 0.956, 0.293, 6.579, 40.193)"/><rect class="c" width="24.989" height="5.215" transform="matrix(0.602, -0.798, 0.798, 0.602, 0, 19.949)"/></g><g transform="translate(118.943 6.251)"><path class="a" d="M294.142,86.32a1.481,1.481,0,0,1-.945,1.87,1.486,1.486,0,1,1-.917-2.827A1.478,1.478,0,0,1,294.142,86.32Z" transform="translate(-273.67 -67.831)"/><path class="a" d="M302.682,80.921a3.463,3.463,0,1,1-4.361-2.215A3.47,3.47,0,0,1,302.682,80.921Z" transform="translate(-271.173 -71.44)"/><path class="a" d="M283.648,75.268a1.977,1.977,0,1,1-3.76,1.226,1.977,1.977,0,0,1,3.76-1.226Z" transform="translate(-279.79 -73.91)"/><path class="a" d="M309.31,107.813a1.471,1.471,0,0,1-.95,1.861,1.481,1.481,0,1,1-.916-2.816A1.467,1.467,0,0,1,309.31,107.813Z" transform="translate(-265.573 -56.357)"/><path class="a" d="M312.209,96.247a4.447,4.447,0,1,1-5.614-2.867A4.454,4.454,0,0,1,312.209,96.247Z" transform="translate(-267.117 -63.629)"/><path class="a" d="M298.461,112.037a3.961,3.961,0,1,1-4.987-2.548A3.959,3.959,0,0,1,298.461,112.037Z" transform="translate(-273.946 -55.014)"/></g></g><g transform="translate(259.585 218.086)"><rect class="c" width="32.699" height="4.129" transform="matrix(0.707, -0.707, 0.707, 0.707, 0.607, 23.729)"/><g transform="translate(0 0)"><path class="c" d="M319.788,76.008a6.424,6.424,0,1,1,6.423-6.426A6.43,6.43,0,0,1,319.788,76.008Zm0-8.719a2.3,2.3,0,1,0,2.293,2.293A2.3,2.3,0,0,0,319.788,67.289Z" transform="translate(-298.96 -48.757)"/><path class="c" d="M310.4,66.618a6.424,6.424,0,1,1,6.423-6.424A6.431,6.431,0,0,1,310.4,66.618Zm0-8.718a2.295,2.295,0,1,0,2.295,2.293A2.3,2.3,0,0,0,310.4,57.9Z" transform="translate(-303.975 -53.771)"/></g></g><g transform="translate(282.029 272.114)"><rect class="c" width="15.416" height="1.946" transform="matrix(0.707, -0.707, 0.707, 0.707, 0.285, 11.187)"/><g transform="translate(0 0)"><path class="c" d="M326.061,99.475a3.028,3.028,0,1,1,3.028-3.03A3.031,3.031,0,0,1,326.061,99.475Zm0-4.11a1.082,1.082,0,1,0,1.081,1.08A1.082,1.082,0,0,0,326.061,95.366Z" transform="translate(-316.242 -86.628)"/><path class="c" d="M321.634,95.048a3.028,3.028,0,1,1,3.028-3.028A3.03,3.03,0,0,1,321.634,95.048Zm0-4.11a1.082,1.082,0,1,0,1.081,1.081A1.083,1.083,0,0,0,321.634,90.939Z" transform="translate(-318.606 -88.992)"/></g></g></g></g></svg>