<svg xmlns="http://www.w3.org/2000/svg" width="23.006" height="23.55" viewBox="0 0 23.006 23.55"><defs><style>.a{fill:#5b6f83;}.b{fill:#fff;stroke:#fff;stroke-width:0.5px;font-size:13px;font-family:Calibri;}</style></defs><g transform="translate(0 0)"><path class="a" d="M28.178,17.746a1.654,1.654,0,0,1,0-1.94L28.812,15a.959.959,0,0,0-.345-1.513l-.921-.451a1.654,1.654,0,0,1-.842-1.748l.221-1a.958.958,0,0,0-.967-1.213l-1.025-.007a1.653,1.653,0,0,1-1.516-1.21l-.235-1a.959.959,0,0,0-1.4-.673l-.926.438a1.654,1.654,0,0,1-1.892-.432l-.645-.8a.959.959,0,0,0-1.552,0l-.645.8a1.654,1.654,0,0,1-1.892.432l-.926-.438a.959.959,0,0,0-1.4.673l-.235,1a1.654,1.654,0,0,1-1.517,1.21l-1.025.007a.959.959,0,0,0-.968,1.213l.221,1a1.653,1.653,0,0,1-.842,1.748l-.92.451A.958.958,0,0,0,6.277,15l.633.806a1.653,1.653,0,0,1,0,1.94l-.633.806a.958.958,0,0,0,.345,1.513l.92.451a1.653,1.653,0,0,1,.842,1.748l-.221,1a.959.959,0,0,0,.968,1.214l1.025.007a1.654,1.654,0,0,1,1.517,1.21l.235,1a.959.959,0,0,0,1.4.673l.926-.438a1.654,1.654,0,0,1,1.892.432l.645.8a.959.959,0,0,0,1.552,0l.645-.8a1.653,1.653,0,0,1,1.892-.432l.926.438a.959.959,0,0,0,1.4-.673l.235-1a1.653,1.653,0,0,1,1.516-1.21l1.025-.007a.959.959,0,0,0,.967-1.214l-.221-1a1.653,1.653,0,0,1,.842-1.748l.921-.451a.959.959,0,0,0,.345-1.513ZM12.609,15.1a1.98,1.98,0,0,1,1.942-2.177,1.847,1.847,0,0,1,1.867,2.06A1.977,1.977,0,0,1,14.5,17.192,1.9,1.9,0,0,1,12.609,15.1Zm3.639,5.528h-1.4l3.98-7.7h1.409Zm4.311-.021a1.915,1.915,0,0,1-1.888-2.091,1.98,1.98,0,0,1,1.942-2.177A1.847,1.847,0,0,1,22.48,18.4,1.977,1.977,0,0,1,20.559,20.607Z" transform="translate(-6.042 -5.001)"/><circle class="a" cx="7.285" cy="7.285" r="7.285" transform="translate(4.202 4.601)"/><text class="b" transform="translate(6.502 16.336)"><tspan x="0" y="0">%</tspan></text></g></svg>