<svg xmlns="http://www.w3.org/2000/svg" width="22.42" height="24.038" viewBox="0 0 22.42 24.038"><defs><style>.a{fill:#5b6f83;}.b{fill:none;stroke:#fff;stroke-linecap:round;stroke-width:1.5px;}</style></defs><g transform="translate(-25.242 -202.479)"><path class="a" d="M3564.542,5118.091l10.779,4.437v14.734l-10.779-4.424Z" transform="translate(-3539 -4911)"/><path class="a" d="M11.509,952.415,22.2,956.69a.524.524,0,0,1,.321.508v14.428a.528.528,0,0,1-.321.481l-10.688,4.275a.521.521,0,0,1-.4,0L.421,972.107a.558.558,0,0,1-.321-.481V957.2a.567.567,0,0,1,.321-.508l10.688-4.275A.677.677,0,0,1,11.509,952.415Zm-.214,1.069L2.05,957.171l3.9,1.55,9.245-3.687Zm5.344,2.138-9.245,3.687,3.9,1.55,9.245-3.687Zm4.809,2.351L11.83,961.82V975.1l9.619-3.848Zm-20.306,0v13.279l4.275,1.71v-3.474a.534.534,0,1,1,1.069,0v3.9l4.275,1.71V961.82l-4.275-1.71v3.5a.536.536,0,0,1-.534.534.554.554,0,0,1-.534-.534v-3.928Z" transform="translate(25.142 -749.906)"/><path class="b" d="M1461.062-1046.453v4.9" transform="translate(-1430 1265)"/><path class="a" d="M3565.6,5118.375l10.364-4.363,9.378,4.363-10.151,4.285Z" transform="translate(-3539 -4911)"/><path class="b" d="M1471.321-1061.635l-10.2,4.477v4.984" transform="translate(-1430 1267)"/><path class="a" d="M3575.321,5122.66l.389,14.08,10.387-4.352v-13.523Z" transform="translate(-3539 -4911)"/></g></svg>