<svg xmlns="http://www.w3.org/2000/svg" width="21.386" height="21.507" viewBox="0 0 21.386 21.507"><defs><style>.a{fill:#5b6f83;}</style></defs><g transform="translate(-25.626 -570.929)"><path class="a" d="M20.651,15.571,18,12.895a2.135,2.135,0,0,0-1.583-.722,2.274,2.274,0,0,0-1.606.722L13.25,14.454l-.419-.209a4.688,4.688,0,0,1-.489-.256,16.693,16.693,0,0,1-4-3.654,9.441,9.441,0,0,1-1.35-2.141c.419-.372.791-.768,1.164-1.141l.419-.419A2.3,2.3,0,0,0,9.316,5a2.3,2.3,0,0,0-.745-1.629L7.245,2.048c-.163-.163-.3-.3-.442-.466C6.5,1.28,6.2.978,5.895.7A2.2,2.2,0,0,0,4.312,0,2.286,2.286,0,0,0,2.706.7L1.053,2.4A3.447,3.447,0,0,0,.029,4.609,8.069,8.069,0,0,0,.658,8.17a20.393,20.393,0,0,0,3.7,6.168,22.722,22.722,0,0,0,7.565,5.912,11.8,11.8,0,0,0,4.236,1.257h.3a3.577,3.577,0,0,0,2.747-1.187l.023-.023a10.155,10.155,0,0,1,.861-.884l.628-.628A2.178,2.178,0,0,0,20.651,15.571Zm-.838,2.444a6.864,6.864,0,0,1-.582.582c-.3.3-.628.605-.931.954a2.428,2.428,0,0,1-1.885.791h-.233A10.664,10.664,0,0,1,12.365,19.2,21.453,21.453,0,0,1,5.2,13.593,19.323,19.323,0,0,1,1.705,7.774,7.251,7.251,0,0,1,1.146,4.7a2.3,2.3,0,0,1,.7-1.49L3.5,1.559a1.242,1.242,0,0,1,.791-.372,1.049,1.049,0,0,1,.768.372c.3.279.582.559.884.861l.466.466L7.733,4.213a1.12,1.12,0,0,1,.4.791,1.172,1.172,0,0,1-.4.791l-.419.419C6.9,6.634,6.523,7.029,6.1,7.4l-.023.023a.916.916,0,0,0-.233,1.024c0,.023,0,.023.023.047a10.694,10.694,0,0,0,1.559,2.537,18.1,18.1,0,0,0,4.283,3.91c.186.116.4.233.582.326a4.689,4.689,0,0,1,.489.256c.023,0,.023.023.047.023a1.138,1.138,0,0,0,.442.116.867.867,0,0,0,.675-.326L15.6,13.686a1.1,1.1,0,0,1,.791-.372,1.207,1.207,0,0,1,.768.372l2.677,2.677A1.07,1.07,0,0,1,19.813,18.015Z" transform="translate(25.618 570.929)"/><path class="a" d="M3568.892,5482.513l-3.282,3.1v2.436l2,5.379,4.934,5.727,5.736,3.072,3.845.4,3.154-3.472-2.425-2.744-1.664-1.525-3.551,2.468-5.095-3.926-1.913-3.774,2.729-2.75Z" transform="translate(-3539 -4911)"/></g></svg>