<svg xmlns="http://www.w3.org/2000/svg" viewBox="0 0 70.5 70.5"><defs><clipPath id="a"><path d="M0 0h70.5v70.5H0z"/></clipPath></defs><g clip-path="url(#a)"><path data-name="Path 4579" d="M67.232 49.482L38.194 32.333a1.914 1.914 0 0 0-1.153-.5V26.64c4.323-.865 7.494-4.107 7.494-8.07a8.122 8.122 0 0 0-7.926-8.07 7.872 7.872 0 0 0-7.638 5.836 1.05 1.05 0 0 0 2.018.576 5.786 5.786 0 0 1 11.384 1.514 6.343 6.343 0 0 1-6.125 5.981.65.65 0 0 0-.36-.072.985.985 0 0 0-1.009 1.009v6.413a3.607 3.607 0 0 0-1.729.648L3.968 49.626a5.513 5.513 0 0 0-2.306 5.908 5.319 5.319 0 0 0 4.756 4.107H64.71a5.334 5.334 0 0 0 4.756-4.107 5.576 5.576 0 0 0-2.234-6.052zm.293 5.476a3.269 3.269 0 0 1-2.738 2.522H6.49a3.368 3.368 0 0 1-2.738-2.522A3.179 3.179 0 0 1 5.049 51.5l29.11-17.293a2.986 2.986 0 0 1 1.441-.432 3.28 3.28 0 0 1 1.441.36l29.11 17.221a3.434 3.434 0 0 1 1.374 3.602z" fill="#7088a0" stroke="#7088a0"/></g></svg>