<svg xmlns="http://www.w3.org/2000/svg" width="23.006" height="23.006" viewBox="0 0 23.006 23.006"><defs><style>.a{fill:#5b6f83;}.b{fill:#fff;stroke:#fff;stroke-miterlimit:10;stroke-width:0.3px;}</style></defs><g transform="translate(-24.859 -139.952)"><path class="a" d="M11.5,0A11.5,11.5,0,1,1,0,11.5,11.5,11.5,0,0,1,11.5,0Z" transform="translate(24.859 139.952)"/><path class="b" d="M26.754,16.089a.5.5,0,0,0-.489-.489H18.529a.5.5,0,0,0-.489.489.525.525,0,0,0,.489.489h2.525a2.354,2.354,0,0,1,1.914.977,2.835,2.835,0,0,1,.448.937H18.529a.5.5,0,0,0-.489.489.525.525,0,0,0,.489.489h4.886a.579.579,0,0,1-.081.244,2.046,2.046,0,0,1-1.344,1.3,9.4,9.4,0,0,1-3.217.244h-.244a.529.529,0,0,0-.489.326.5.5,0,0,0,.122.57l6.271,5.578a.462.462,0,0,0,.326.122.442.442,0,0,0,.366-.163.518.518,0,0,0-.041-.733L19.873,22.4a9.687,9.687,0,0,0,2.4-.285,2.971,2.971,0,0,0,2.036-1.954,1.6,1.6,0,0,0,.122-.57h1.792a.5.5,0,0,0,.489-.489.525.525,0,0,0-.489-.489H24.434a3.422,3.422,0,0,0-.651-1.547,1.75,1.75,0,0,0-.366-.407h2.81A.608.608,0,0,0,26.754,16.089Z" transform="translate(13.984 130.501)"/></g></svg>