<svg xmlns="http://www.w3.org/2000/svg" width="171.026" height="137.737" viewBox="0 0 171.026 137.737"><defs><style>.a{fill:#8bdbf0;stroke:#707070;}.b{fill:#f5c697;}.c{fill:#231f20;}.c,.d{stroke:#242d3c;}.d{fill:#242d3c;}.e{fill:#f96232;}</style></defs><g transform="translate(-100.908 -245.801)"><path class="a" d="M1425.822,342.927v53.506h78.989l1.873-24.219-1.873-29.287h-78.989" transform="translate(-1261.747 -84.441)"/><path class="b" d="M1445.691,368.3l-7.524,4.873v62.058l-19.617-4.513-8.6,4.513,8.6,8.653,12.77,5.991,6.847,10.866V466.6h54.154l1.41-51.341-3.032-8.4h-10.444l-8.324-.8h-11.942l-7.189,2.7V391.609l-1.038-17.419Z" transform="translate(-1262.608 -83.063)"/><g transform="translate(147.101 255.524)"><g transform="translate(13.583 0)"><rect class="c" width="81.898" height="6.365" transform="translate(2.227 12.632)"/><path class="d" d="M304,110.99H253.6v-4.454H304a1.763,1.763,0,0,0,1.257-.513,1.827,1.827,0,0,0,.524-1.267V58.181A1.773,1.773,0,0,0,304,56.4H230.11a1.773,1.773,0,0,0-1.775,1.781l.009,46.576a1.8,1.8,0,0,0,.523,1.276,1.769,1.769,0,0,0,1.258.5h9.867v4.454h-9.867a6.175,6.175,0,0,1-4.424-1.828,6.266,6.266,0,0,1-1.809-4.424l-.009-46.557a6.223,6.223,0,0,1,6.211-6.233H304a6.225,6.225,0,0,1,6.235,6.233v46.576a6.318,6.318,0,0,1-1.82,4.407A6.187,6.187,0,0,1,304,110.99Z" transform="translate(-223.883 -51.948)"/><g transform="translate(44.729 33.355)"><rect class="d" width="12.474" height="4.453" transform="translate(18.02 11.597)"/><rect class="d" width="12.474" height="4.453" transform="translate(0.811 11.597)"/><rect class="d" width="30.494" height="4.895"/></g></g><path class="d" d="M300.906,169.335h-4.452V116.6a4.583,4.583,0,0,0-9.166,0v.006a2.226,2.226,0,0,1-4.452,0,4.577,4.577,0,0,0-4.572-4.59,4.612,4.612,0,0,0-4.582,4.59,2.226,2.226,0,0,1-4.452,0v0a4.574,4.574,0,1,0-9.149-.006,2.227,2.227,0,1,1-4.454,0V80.708a4.576,4.576,0,0,0-9.152,0v61.305a2.226,2.226,0,0,1-3.572,1.772,31.714,31.714,0,0,0-19.323-6.5,4.577,4.577,0,0,0,0,9.155,22.92,22.92,0,0,1,22.9,22.894h-4.452a18.464,18.464,0,0,0-18.443-18.442,9.029,9.029,0,0,1,0-18.059,36.1,36.1,0,0,1,18.443,5.007V80.708a9.029,9.029,0,0,1,18.057,0v28.1a9.034,9.034,0,0,1,10.963,1.4c.147.147.288.3.422.454.138-.157.281-.309.43-.456a9,9,0,0,1,12.753.009c.147.146.287.3.421.45.138-.156.281-.31.431-.459a9.029,9.029,0,0,1,15.4,6.393Z" transform="translate(-214.556 -42.942)"/></g><g transform="translate(100.908 245.801)"><path class="e" d="M293.2,47.452a1.7,1.7,0,1,0,1.129-2.112A1.7,1.7,0,0,0,293.2,47.452Z" transform="translate(-160.971 -45.272)"/><path class="e" d="M264.687,42.475a3.959,3.959,0,1,0,2.658-4.92A3.966,3.966,0,0,0,264.687,42.475Z" transform="translate(-229.905 -28.839)"/><path class="e" d="M202.479,121.622a2.26,2.26,0,1,0,4.331-1.295,2.26,2.26,0,0,0-4.331,1.295Z" transform="translate(-202.384 -11.754)"/><path class="e" d="M290.189,84.376a1.683,1.683,0,0,0,2.1,1.132,1.693,1.693,0,1,0-.971-3.243A1.678,1.678,0,0,0,290.189,84.376Z" transform="translate(-137.045 -2.065)"/><path class="e" d="M295.676,77.917a5.083,5.083,0,1,0,3.411-6.345A5.091,5.091,0,0,0,295.676,77.917Z" transform="translate(-134.606 -31.258)"/></g></g></svg>