<svg xmlns="http://www.w3.org/2000/svg" width="189.115" height="129.518" viewBox="0 0 189.115 129.518"><defs><style>.a{fill:#ff9c48;}.b{fill:#f5c697;}.c{fill:#f96232;}.d{fill:#242d3c;}</style></defs><g transform="translate(-104.885 -250)"><path class="a" d="M1029.559,393.668h28.41l22.234,25.063,5.458,6.76v28.435h-53.094Z" transform="translate(-795 -92)"/><path class="b" d="M926.849,377.988V363.753h99.531l4.318,2.6,2.217,85.617-59.61,1.933H928.226l-1.377-26.417" transform="translate(-791.849 -92)"/><g transform="translate(104.885 250)"><path class="c" d="M271.048,65.507a1.829,1.829,0,1,0,1.218-2.279A1.83,1.83,0,0,0,271.048,65.507Z" transform="translate(-172.893 -63.154)"/><path class="c" d="M245.536,93.854a1.83,1.83,0,1,0,1.218-2.279A1.831,1.831,0,0,0,245.536,93.854Z" transform="translate(-154.478 34.053)"/><path class="c" d="M242.537,77.768a4.272,4.272,0,1,0,2.868-5.309A4.281,4.281,0,0,0,242.537,77.768Z" transform="translate(-187.248 -66.939)"/><path class="c" d="M208.669,68.868a2.439,2.439,0,1,0,4.674-1.4,2.439,2.439,0,0,0-4.674,1.4Z" transform="translate(-208.567 -61.679)"/><path class="c" d="M267.455,94.745a2.377,2.377,0,0,0,2.972,1.6,2.392,2.392,0,1,0-1.374-4.583A2.37,2.37,0,0,0,267.455,94.745Z" transform="translate(-264.961 -2.856)"/><path class="c" d="M273.531,87.816a5.486,5.486,0,1,0,3.681-6.85A5.495,5.495,0,0,0,273.531,87.816Z" transform="translate(-128.562 -72.101)"/></g><circle class="c" cx="15" cy="15" r="15" transform="translate(148 347)"/><circle class="c" cx="15" cy="15" r="15" transform="translate(246 347)"/><g transform="translate(113.796 270.474)"><path class="d" d="M232.338,137.4H214.057V104.519h6.108v26.775h12.173Z" transform="translate(-198.34 -42.978)"/><path class="d" d="M325.929,159.787H264.308v-6.108H319.82V71.471H209.282V65.364H325.929Z" transform="translate(-201.07 -65.364)"/><rect class="d" width="6.108" height="16.253" transform="translate(15.716 3.054)"/><rect class="d" width="7.559" height="6.109" transform="translate(18.771 73.194)"/><g transform="translate(80.291 73.194)"><rect class="d" width="5.866" height="6.109" transform="translate(23.464)"/><rect class="d" width="5.866" height="6.109" transform="translate(11.731)"/><rect class="d" width="5.866" height="6.109"/></g><rect class="d" width="7.56" height="6.109" transform="translate(169.589 73.194)"/><path class="d" d="M341.065,149.079H324.959v-6.108h10v-25.23L310.724,90.2h-25v52.768h10v6.108H279.612V84.094h33.875l27.579,31.341Z" transform="translate(-160.862 -54.655)"/><g transform="translate(30.944 73.695)"><path class="d" d="M241.42,147.6a17.675,17.675,0,1,1,17.674-17.675A17.7,17.7,0,0,1,241.42,147.6Zm0-29.24a11.566,11.566,0,1,0,11.565,11.565A11.578,11.578,0,0,0,241.42,118.361Z" transform="translate(-223.745 -112.252)"/></g><g transform="translate(131.805 73.695)"><path class="d" d="M305.589,147.6a17.675,17.675,0,1,1,17.675-17.675A17.694,17.694,0,0,1,305.589,147.6Zm0-29.24a11.566,11.566,0,1,0,11.568,11.565A11.578,11.578,0,0,0,305.589,118.361Z" transform="translate(-287.918 -112.252)"/></g><g transform="translate(0 25.638)"><rect class="d" width="48.171" height="6.108"/><rect class="d" width="24.121" height="6.108" transform="translate(21.703 23.464)"/><rect class="d" width="47.903" height="6.109" transform="translate(10.559 11.731)"/><rect class="d" width="5.866" height="6.109" transform="translate(4.839 47.556)"/><rect class="d" width="5.866" height="6.108" transform="translate(60.809)"/><rect class="d" width="13.491" height="6.108" transform="translate(2.347 23.464)"/></g></g></g></svg>